<?xml version="1.0" standalone="no"?>
<!DOCTYPE svg PUBLIC "-//W3C//DTD SVG 1.1//EN" "http://www.w3.org/Graphics/SVG/1.1/DTD/svg11.dtd">
<svg width="100%" height="100%" viewBox="0 0 78 58" version="1.1" xmlns="http://www.w3.org/2000/svg" xmlns:xlink="http://www.w3.org/1999/xlink" xml:space="preserve" style="fill-rule:evenodd;clip-rule:evenodd;stroke-linejoin:round;stroke-miterlimit:1.41421;">
    <g transform="matrix(1,0,0,1,-733.85,-975.068)">
        <g transform="matrix(0.512674,0,0,0.512674,476.145,397.85)">
            <g transform="matrix(0.295418,0,0,0.295418,502.667,1106.67)">
                <path d="M503.322,65.085L238.644,65.085C236.831,65.085 235.061,65.654 233.587,66.71L3.621,231.591C1.347,233.221 0,235.846 0,238.644L0,438.237C0,443.029 3.886,446.915 8.678,446.915L503.322,446.915C508.114,446.915 512,443.029 512,438.237L512,73.763C512,68.97 508.114,65.085 503.322,65.085ZM494.644,429.559L17.356,429.559L17.356,243.101L241.434,82.441L494.644,82.441L494.644,429.559Z" style="fill:rgb(99,120,133);fill-rule:nonzero;"/>
            </g>
            <g transform="matrix(0.295418,0,0,0.295418,502.667,1106.67)">
                <path d="M468.61,99.797L251.661,99.797C249.784,99.797 247.955,100.406 246.453,101.532L72.894,231.701C69.907,233.943 68.688,237.844 69.869,241.388C71.051,244.931 74.367,247.321 78.102,247.321L468.61,247.321C473.402,247.321 477.288,243.435 477.288,238.643L477.288,108.475C477.288,103.682 473.403,99.797 468.61,99.797ZM459.932,229.966L104.136,229.966L254.553,117.152L459.932,117.152L459.932,229.966Z" style="fill:rgb(99,120,133);fill-rule:nonzero;"/>
            </g>
            <g transform="matrix(0.295418,0,0,0.295418,502.667,1106.67)">
                <path d="M459.932,299.39L399.186,299.39C394.394,299.39 390.508,303.276 390.508,308.068L390.508,360.136C390.508,364.928 394.394,368.814 399.186,368.814C403.978,368.814 407.864,364.928 407.864,360.136L407.864,316.746L459.932,316.746C464.724,316.746 468.61,312.86 468.61,308.068C468.61,303.276 464.725,299.39 459.932,299.39Z" style="fill:rgb(99,120,133);fill-rule:nonzero;"/>
            </g>
        </g>
    </g>
</svg>
