<?xml version="1.0" standalone="no"?>
<!DOCTYPE svg PUBLIC "-//W3C//DTD SVG 1.1//EN" "http://www.w3.org/Graphics/SVG/1.1/DTD/svg11.dtd">
<svg width="100%" height="100%" viewBox="0 0 166 43" version="1.1" xmlns="http://www.w3.org/2000/svg" xmlns:xlink="http://www.w3.org/1999/xlink" xml:space="preserve" style="fill-rule:evenodd;clip-rule:evenodd;stroke-linejoin:round;stroke-miterlimit:1.41421;">
    <g transform="matrix(1,0,0,1,-376.209,-21.0424)">
        <g transform="matrix(0.449937,0,0,0.449937,-283.955,-304.191)">
            <g transform="matrix(1.41794,0,0,1.46605,-182.299,-143.933)">
                <path d="M1243.16,642.298L1255.31,642.298L1255.31,640.393L1245.34,640.393L1245.34,632.146L1254.71,632.146L1254.71,630.241L1245.34,630.241L1245.34,623.007L1255.04,623.007L1255.04,621.101L1243.16,621.101L1243.16,642.298Z" style="fill:rgb(34,34,34);fill-rule:nonzero;"/>
                <path d="M1261.53,627.889L1261.53,637.207C1261.53,639.351 1261.86,640.423 1262.81,641.256C1263.71,642.09 1265.11,642.477 1267.13,642.477C1268.86,642.477 1270.43,642.298 1272.7,641.881L1272.7,627.889L1270.52,627.889L1270.52,640.363C1269.48,640.571 1268.44,640.69 1267.43,640.69C1264.66,640.69 1263.71,639.678 1263.71,636.761L1263.71,627.889L1261.53,627.889Z" style="fill:rgb(34,34,34);fill-rule:nonzero;"/>
                <path d="M1279.9,642.298L1282.08,642.298L1282.08,630.122C1283.03,629.705 1283.98,629.497 1285.02,629.497C1285.91,629.497 1286.54,629.645 1287.37,629.973L1287.37,628.068C1286.6,627.8 1286.01,627.71 1285.08,627.71C1283.41,627.71 1281.39,628.097 1279.9,628.752L1279.9,642.298Z" style="fill:rgb(34,34,34);fill-rule:nonzero;"/>
                <path d="M1290.89,635.302C1290.89,639.887 1293.39,642.685 1297.47,642.685C1301.63,642.685 1304.22,639.738 1304.22,635.034C1304.22,630.449 1301.72,627.651 1297.64,627.651C1293.48,627.651 1290.89,630.568 1290.89,635.302ZM1293,635.183C1293,631.521 1294.61,629.437 1297.56,629.437C1300.5,629.437 1302.11,631.521 1302.11,635.183C1302.11,638.845 1300.5,640.899 1297.56,640.899C1294.61,640.899 1293,638.845 1293,635.183Z" style="fill:rgb(34,34,34);fill-rule:nonzero;"/>
                <path d="M1316.52,642.298L1318.78,642.298L1318.96,641.792C1319.56,640.065 1320.6,637.237 1321.49,634.915L1321.67,634.409L1330.33,634.409L1331.61,638.249C1331.91,639.142 1332.3,640.333 1332.75,641.762L1332.92,642.298L1335.34,642.298L1335.01,641.316C1332.6,634.052 1330.48,628.246 1327.86,621.786L1327.54,621.042L1325.01,621.042L1324.68,621.756C1321.4,629.258 1318.75,635.897 1316.82,641.405L1316.52,642.298ZM1322.44,632.503C1322.8,631.491 1323.01,631.015 1323.61,629.467L1324.74,626.698C1324.98,626.103 1325.3,625.329 1325.69,624.376L1326.23,623.126C1326.64,624.138 1326.79,624.555 1327.06,625.21C1327.45,626.311 1328.13,628.187 1328.61,629.526L1329.41,631.878L1329.65,632.503L1322.44,632.503Z" style="fill:rgb(34,34,34);fill-rule:nonzero;"/>
                <path d="M1340.96,642.298L1343.13,642.298L1343.13,630.062C1344.41,629.645 1345.28,629.497 1346.35,629.497C1348.94,629.497 1349.92,630.539 1349.92,633.248L1349.92,642.298L1352.1,642.298L1352.1,632.95C1352.1,631.551 1352.04,630.896 1351.8,630.181C1353.02,629.705 1353.91,629.497 1354.95,629.497C1357.31,629.497 1358.26,630.598 1358.26,633.248L1358.26,642.298L1360.43,642.298L1360.43,632.861C1360.43,631.045 1360.16,630.032 1359.45,629.229C1358.59,628.246 1357.13,627.71 1355.28,627.71C1353.73,627.71 1352.39,628.008 1350.76,628.693C1349.62,628.008 1348.49,627.71 1346.98,627.71C1345.07,627.71 1343.08,628.038 1340.96,628.693L1340.96,642.298Z" style="fill:rgb(34,34,34);fill-rule:nonzero;"/>
                <path d="M1367.52,642.298L1369.69,642.298L1369.69,627.889L1367.52,627.889L1367.52,642.298ZM1367.34,624.644L1369.75,624.644L1369.75,622.113L1367.34,622.113L1367.34,624.644Z" style="fill:rgb(34,34,34);fill-rule:nonzero;"/>
                <path d="M1374.72,627.889L1374.9,628.544C1375.91,632.682 1377.46,637.297 1379.37,641.792L1379.58,642.298L1381.72,642.298L1385.14,633.426C1385.56,632.295 1385.83,631.283 1386.09,629.973C1386.27,631.461 1386.42,632.176 1386.87,633.426L1389.9,642.298L1392.02,642.298L1392.26,641.792C1393.15,639.768 1394.16,637.386 1394.91,635.421C1395.83,632.98 1396.48,630.985 1397.2,628.484L1397.38,627.889L1395.17,627.889L1395.09,628.216C1394.49,630.539 1393.95,632.295 1393.06,634.885C1392.32,637.058 1391.81,638.398 1391.3,639.559L1391.13,640.423L1390.98,639.559L1387.05,627.889L1385.23,627.889L1380.88,639.559L1380.68,640.423L1380.5,639.559L1380.38,639.172C1379.6,637.088 1379.25,635.987 1378.59,633.754C1377.94,631.551 1377.67,630.568 1377.13,628.216L1377.04,627.889L1374.72,627.889Z" style="fill:rgb(34,34,34);fill-rule:nonzero;"/>
                <path d="M1402.02,631.461C1403.81,630.092 1405.27,629.467 1406.82,629.467C1407.89,629.467 1408.6,629.824 1408.87,630.539C1409.08,631.015 1409.11,631.372 1409.11,633.307L1409.11,633.724L1408.78,633.754C1403.48,634.171 1401.25,635.659 1401.25,638.815C1401.25,641.286 1402.77,642.566 1405.77,642.566C1407.26,642.566 1408.96,642.387 1411.07,642.03L1411.07,632.92C1411.07,631.015 1410.98,630.211 1410.65,629.526C1410.12,628.336 1408.9,627.681 1407.17,627.681C1405.45,627.681 1403.84,628.216 1402.02,629.348L1402.02,631.461ZM1409.08,640.571C1407.95,640.69 1406.99,640.78 1406.07,640.78C1404.23,640.78 1403.36,640.065 1403.36,638.577C1403.36,636.552 1404.91,635.719 1409.08,635.391L1409.08,640.571Z" style="fill:rgb(34,34,34);fill-rule:nonzero;"/>
                <rect x="1418.19" y="619.97" width="2.173" height="22.328" style="fill:rgb(34,34,34);fill-rule:nonzero;"/>
            </g>
            <g transform="matrix(0.746196,0,0,1.63886,399.627,-563.535)">
                <rect x="1430.74" y="840.569" width="493.533" height="1.829" style="fill:rgb(0,107,166);"/>
            </g>
            <g transform="matrix(-0.387747,-0.387747,-0.387747,0.387747,1560.91,791.809)">
                <path d="M23.857,37.219L26.099,40.995C30.974,49.208 40.103,54.309 49.923,54.309C59.239,54.309 67.471,49.51 72.352,42.218L144.769,42.218C149.652,49.399 157.878,54.125 167.187,54.125C177.512,54.125 186.444,48.796 191.081,39.87L192.977,36.218L172.613,36.218L167.302,27.218L172.613,18.218L193.254,18.218L191.012,14.442C187.059,7.78 178.445,0 167.188,0C157.711,0 149.36,4.868 144.512,12.219L72.629,12.219C67.829,5.09 59.537,0.466 49.924,0.466C40.024,0.466 30.868,6.252 26.03,15.567L24.134,19.219L44.499,19.219L49.81,28.219L44.499,37.219L23.857,37.219Z" style="fill:rgb(0,107,166);fill-rule:nonzero;"/>
            </g>
            <g transform="matrix(0.387747,-0.387747,0.387747,0.387747,1455.3,791.809)">
                <path d="M23.857,37.219L26.099,40.995C30.974,49.208 40.103,54.309 49.923,54.309C59.239,54.309 67.471,49.51 72.352,42.218L144.769,42.218C149.652,49.399 157.878,54.125 167.187,54.125C177.512,54.125 186.444,48.796 191.081,39.87L192.977,36.218L172.613,36.218L167.302,27.218L172.613,18.218L193.254,18.218L191.012,14.442C187.059,7.78 178.445,0 167.188,0C157.711,0 149.36,4.868 144.512,12.219L72.629,12.219C67.829,5.09 59.537,0.466 49.924,0.466C40.024,0.466 30.868,6.252 26.03,15.567L24.134,19.219L44.499,19.219L49.81,28.219L44.499,37.219L23.857,37.219Z" style="fill:rgb(81,81,81);fill-rule:nonzero;"/>
            </g>
        </g>
    </g>
</svg>
