<?xml version="1.0" standalone="no"?>
<!DOCTYPE svg PUBLIC "-//W3C//DTD SVG 1.1//EN" "http://www.w3.org/Graphics/SVG/1.1/DTD/svg11.dtd">
<svg width="100%" height="100%" viewBox="0 0 70 61" version="1.1" xmlns="http://www.w3.org/2000/svg" xmlns:xlink="http://www.w3.org/1999/xlink" xml:space="preserve" style="fill-rule:evenodd;clip-rule:evenodd;stroke-linejoin:round;stroke-miterlimit:1.41421;">
    <g transform="matrix(1,0,0,1,-1023.31,-972.7)">
        <g transform="matrix(1,0,0,1,0,813.999)">
            <g transform="matrix(0.149193,0,0,0.149193,909.124,104.833)">
                <g transform="matrix(1,0,0,1,767.224,330.333)">
                    <path d="M310.597,170.701L354.842,186.59C355.847,186.951 356.874,187.122 357.884,187.122C361.574,187.122 365.036,184.834 366.355,181.162L377.049,151.382C377.856,149.135 377.737,146.66 376.719,144.502C375.701,142.343 373.867,140.677 371.621,139.87L327.376,123.981C322.696,122.298 317.543,124.732 315.864,129.409L305.17,159.189C304.363,161.436 304.482,163.911 305.5,166.069C306.517,168.228 308.351,169.894 310.597,170.701ZM329.762,143.963L357.066,153.768L352.455,166.607L325.151,156.802L329.762,143.963Z" style="fill:rgb(99,120,133);fill-rule:nonzero;"/>
                </g>
                <g transform="matrix(1,0,0,1,765.333,329.333)">
                    <path d="M307.478,248.329L309.983,245.824C321.794,234.013 335.589,224.741 350.986,218.265L409.973,193.454C409.973,193.454 425.992,186.546 429.571,184.518C434.366,181.801 439.117,178.06 444.097,173.079C473.242,143.934 474.705,96.94 447.429,66.092C445.334,63.722 442.147,62.624 439.037,63.206C435.927,63.786 433.35,65.956 432.249,68.922L410.754,126.828L394.713,120.89L417.317,59.374C418.408,56.404 417.86,53.08 415.873,50.618C413.886,48.156 410.752,46.917 407.619,47.358C377.195,51.626 352.47,73.14 343.737,102.02L306.612,88.277C304.121,87.355 301.35,87.581 299.041,88.893C296.732,90.206 295.12,92.471 294.638,95.082L286.095,141.313C282.098,162.947 272.739,182.902 258.852,199.696L179.839,120.691L185.457,115.073C188.972,111.558 188.972,105.86 185.457,102.345L179.52,96.408C197.618,74.191 220.77,73.095 237.605,76.432C241.316,77.169 245.095,75.502 247.054,72.262C249.013,69.023 248.737,64.905 246.362,61.957C238.415,52.094 228.529,44.406 216.983,39.11C189.072,26.287 156.147,30.511 132.383,49.271L127.469,44.357C123.954,40.842 118.256,40.842 114.741,44.357L60.092,99.007C56.602,102.497 56.573,108.146 60.029,111.671C63.145,114.85 61.669,121.847 56.871,126.645C52.073,131.443 45.076,132.919 41.897,129.803C38.372,126.347 32.722,126.376 29.233,129.866L2.636,156.462C-0.879,159.977 -0.879,165.675 2.636,169.19L60.624,227.178C62.381,228.935 64.685,229.814 66.988,229.814C69.291,229.814 71.594,228.935 73.352,227.178L99.949,200.581C103.428,197.102 103.469,191.474 100.04,187.945C96.947,184.762 98.432,177.774 103.217,172.989C108.001,168.205 114.989,166.719 118.172,169.812C121.7,173.242 127.329,173.201 130.808,169.722L135.777,164.753L215.21,244.186L84.705,374.689C78.267,381.127 74.721,389.687 74.721,398.793C74.721,407.898 78.267,416.458 84.705,422.896C91.35,429.542 100.079,432.864 108.809,432.864C117.538,432.864 126.267,429.541 132.912,422.896L263.415,292.393L403.61,432.588C405.367,434.345 407.671,435.224 409.974,435.224C412.277,435.224 414.58,434.345 416.338,432.588L447.678,401.248C449.366,399.56 450.314,397.271 450.314,394.884C450.314,392.497 449.366,390.208 447.678,388.52L307.478,248.329ZM394.373,69.628L377.833,114.641L360.677,108.29C365.615,90.834 378.082,76.74 394.373,69.628ZM209.474,55.468C210.92,56.131 212.331,56.842 213.709,57.6C195.424,59.906 179.389,68.762 166.749,83.636L145.224,62.111C163.59,48.584 188.366,45.771 209.474,55.468ZM121.106,63.448L166.366,108.708L125.408,149.666L80.148,104.406L121.106,63.448ZM66.988,208.086L21.728,162.826L35.597,148.957L80.857,194.217L66.988,208.086ZM90.488,160.261C87.237,163.512 84.774,167.173 83.081,170.986L58.876,146.782C62.686,145.088 66.345,142.624 69.597,139.372C73.233,135.736 75.9,131.596 77.586,127.3L102.564,152.278C98.265,153.962 94.123,156.627 90.488,160.261ZM148.503,152.025L167.111,133.417L246.548,212.846L227.936,231.458L148.503,152.025ZM120.184,410.168C117.145,413.207 113.105,414.88 108.808,414.88C104.511,414.88 100.471,413.207 97.433,410.168C91.161,403.895 91.161,393.689 97.433,387.417L263.36,221.49C284.406,200.445 298.388,173.85 303.796,144.583L310.396,108.87L412.938,146.831C417.595,148.556 422.771,146.179 424.5,141.522L443.015,91.643C453.866,114.125 449.831,141.89 431.369,160.352C427.552,164.169 424.06,166.951 420.695,168.858C418.605,170.043 401.846,177.345 401.846,177.345L344.006,201.673C326.45,209.057 310.721,219.629 297.254,233.096L120.184,410.168ZM409.974,413.496L276.143,279.665L294.75,261.058L428.586,394.885L409.974,413.496Z" style="fill:rgb(99,120,133);fill-rule:nonzero;"/>
                </g>
            </g>
        </g>
    </g>
</svg>
