<?xml version="1.0" standalone="no"?>
<!DOCTYPE svg PUBLIC "-//W3C//DTD SVG 1.1//EN" "http://www.w3.org/Graphics/SVG/1.1/DTD/svg11.dtd">
<svg width="100%" height="100%" viewBox="0 0 146 61" version="1.1" xmlns="http://www.w3.org/2000/svg" xmlns:xlink="http://www.w3.org/1999/xlink" xml:space="preserve" style="fill-rule:evenodd;clip-rule:evenodd;stroke-linejoin:round;stroke-miterlimit:1.41421;">
    <g transform="matrix(1,0,0,1,-1287.34,-972.658)">
        <g transform="matrix(1,0,0,1,1584,1056.14)">
            <g transform="matrix(1.56699,0,0,1.56699,-296.658,-126.215)">
                <path d="M92.983,49.379L88.519,48.443L84.586,36.473L59.198,31.122L50.771,40.489L38.177,37.842L36.586,45.392L35.045,45.069L34.278,48.712C34.042,48.831 33.788,48.917 33.503,48.917C32.553,48.917 31.779,48.146 31.779,47.191C31.779,46.239 32.555,45.463 33.503,45.463L34.047,45.463L34.047,33.768L34.238,33.603L29.665,27.271L1.137,51.222L0,51.222L0,61.501L17.859,61.501C18.513,63.914 20.701,65.707 23.316,65.707C25.932,65.707 28.123,63.914 28.777,61.501L34.082,61.501L34.082,58.394L35.477,58.394L35.477,54.038L34.082,54.038L34.082,51.226L13.694,51.226L32.958,34.703L32.958,44.43C31.666,44.682 30.689,45.833 30.689,47.197C30.689,48.747 31.95,50.011 33.504,50.011C34.065,50.011 34.558,49.805 34.997,49.523L35.693,49.667L35.131,52.343L43.99,54.204C43.95,56.864 45.793,59.268 48.49,59.838C48.878,59.921 49.272,59.962 49.668,59.962C51.962,59.962 54.002,58.552 54.878,56.503L71.311,59.957C71.288,61.079 71.603,62.184 72.232,63.142C73.063,64.41 74.336,65.282 75.816,65.591C76.204,65.673 76.598,65.714 76.993,65.714C79.286,65.714 81.325,64.305 82.201,62.256L89.93,63.88L92.983,49.379ZM20.824,37.122L28.465,37.122L20.824,43.678L20.824,37.122L20.824,37.122ZM19.735,43.702L11.798,43.702L19.735,37.04L19.735,43.702ZM20.929,36.031L28.418,29.75L28.418,36.031L20.929,36.031ZM10.569,44.732L10.569,51.222L2.837,51.222L10.569,44.732ZM23.32,63.527C21.395,63.527 19.825,61.958 19.825,60.032C19.825,58.1 21.392,56.533 23.32,56.533C25.249,56.533 26.817,58.1 26.817,60.032C26.817,61.958 25.247,63.527 23.32,63.527ZM31.906,59.325L28.93,59.325C28.577,56.528 26.211,54.352 23.326,54.352C20.439,54.352 18.073,56.528 17.723,59.325L2.191,59.325L2.191,53.403L31.913,53.403L31.906,59.325ZM11.66,51.222L11.66,44.79L19.525,44.79L12.027,51.222L11.66,51.222ZM29.505,36.227L29.505,28.899L32.773,33.427L29.505,36.227ZM53.083,54.998C52.695,56.846 50.809,58.094 48.946,57.696C47.057,57.3 45.847,55.438 46.244,53.556C46.585,51.948 48.021,50.78 49.663,50.78C49.904,50.78 50.148,50.805 50.389,50.853C51.303,51.044 52.085,51.582 52.592,52.363C53.103,53.15 53.277,54.083 53.083,54.998ZM80.41,60.752C80.022,62.596 78.145,63.841 76.27,63.44C75.353,63.249 74.568,62.714 74.062,61.934C73.55,61.147 73.373,60.219 73.569,59.299C73.907,57.692 75.343,56.524 76.984,56.524C77.228,56.524 77.469,56.553 77.712,56.601C78.624,56.792 79.409,57.329 79.918,58.112C80.426,58.905 80.604,59.835 80.41,60.752ZM82.664,60.11C82.68,58.99 82.367,57.888 81.74,56.932C80.914,55.657 79.639,54.786 78.159,54.475C75.504,53.93 72.812,55.415 71.767,57.817L55.338,54.362C55.357,53.244 55.042,52.139 54.417,51.177C53.586,49.908 52.313,49.037 50.831,48.727C48.185,48.167 45.486,49.66 44.447,52.071L37.713,50.652L39.864,40.43L51.551,42.893L59.975,33.527L82.902,38.353L86.84,50.324L90.399,51.068L88.246,61.292L82.664,60.11ZM81.868,42.155L84.297,49.546L80.484,48.74L81.868,42.155ZM70.042,37.867L80.1,39.978L78.348,48.296L68.295,46.182L70.042,37.867ZM60.761,35.91L67.911,37.419L66.159,45.731L54.197,43.216L60.761,35.91Z" style="fill:rgb(99,120,133);fill-rule:nonzero;"/>
            </g>
        </g>
    </g>
</svg>
