<?xml version="1.0" standalone="no"?>
<!DOCTYPE svg PUBLIC "-//W3C//DTD SVG 1.1//EN" "http://www.w3.org/Graphics/SVG/1.1/DTD/svg11.dtd">
<svg width="100%" height="100%" viewBox="0 0 58 58" version="1.1" xmlns="http://www.w3.org/2000/svg" xmlns:xlink="http://www.w3.org/1999/xlink" xml:space="preserve" style="fill-rule:evenodd;clip-rule:evenodd;stroke-linejoin:round;stroke-miterlimit:1.41421;">
    <g transform="matrix(1,0,0,1,-496.693,-975.068)">
        <g transform="matrix(1,0,0,1,0,898.874)">
            <g transform="matrix(0.194575,0,0,0.194575,496.501,76.194)">
                <rect x="29.556" y="192.448" width="9.524" height="9.524" style="fill:rgb(99,120,133);"/>
                <path d="M91.461,192.447L48.604,192.447L48.604,201.971L91.461,201.971C94.085,201.971 96.223,204.105 96.223,206.733L96.223,225.781L105.747,225.781L105.747,206.733C105.747,198.857 99.337,192.447 91.461,192.447Z" style="fill:rgb(99,120,133);fill-rule:nonzero;"/>
                <path d="M262.889,1.971L186.699,1.971C168.318,1.971 153.366,16.928 153.366,35.304L153.366,225.78C153.366,244.156 168.318,259.113 186.699,259.113L219.728,259.113C216.69,286.199 187.961,287.684 181.938,287.684C167.362,287.684 143.938,281.908 122.633,275.579C124.009,271.931 124.795,267.998 124.795,263.874L124.795,206.731C124.795,189.974 112.352,176.102 96.224,173.779L96.224,44.829L96.224,35.305L96.224,33.334L62.889,0L23.428,39.462L33.357,54.352L23.833,68.638L33.357,82.924L24.062,96.867L29.557,107.857L29.557,173.781C13.428,176.105 0.986,189.976 0.986,206.733L0.986,263.876C0.986,282.252 15.938,297.209 34.319,297.209L91.462,297.209C102.219,297.209 111.776,292.061 117.876,284.128C140.347,290.871 165.766,297.209 181.938,297.209C204.324,297.209 226.876,285.366 229.314,259.114L262.89,259.114C281.271,259.114 296.223,244.157 296.223,225.781L296.223,35.305C296.223,16.929 281.27,1.971 262.889,1.971ZM35.28,68.638L44.804,54.352L35.685,40.671L62.889,13.467L86.699,37.277L86.699,173.4L67.651,173.4L67.651,54.352L58.127,54.352L58.127,173.4L39.08,173.4L39.08,105.61L35.051,97.558L44.803,82.925L35.28,68.638ZM115.271,263.876C115.271,267.033 114.623,270.038 113.5,272.8C105.243,270.224 97.614,267.691 91.295,265.524C91.357,264.976 91.462,264.443 91.462,263.876C91.462,256 85.052,249.59 77.176,249.59L48.604,249.59C40.728,249.59 34.318,256 34.318,263.876C34.318,271.752 40.728,278.162 48.604,278.162L77.175,278.162C81.008,278.162 84.48,276.624 87.046,274.162C92.946,276.2 100.084,278.586 107.875,281.048C103.594,285.138 97.832,287.686 91.461,287.686L34.318,287.686C21.189,287.686 10.508,277.005 10.508,263.876L10.508,206.733C10.508,193.604 21.189,182.923 34.318,182.923L91.461,182.923C104.59,182.923 115.271,193.604 115.271,206.733L115.271,263.876ZM71.556,268.633L48.604,268.633C45.98,268.633 43.842,266.5 43.842,263.871C43.842,261.242 45.98,259.109 48.604,259.109L77.175,259.109C79.185,259.109 80.885,260.366 81.585,262.133C76.985,260.5 74.228,259.471 74.085,259.414L70.742,268.333C70.875,268.381 71.175,268.495 71.556,268.633ZM286.699,225.781C286.699,238.91 276.018,249.591 262.889,249.591L186.699,249.591C173.57,249.591 162.889,238.91 162.889,225.781L162.889,35.305C162.889,22.176 173.57,11.495 186.699,11.495L262.889,11.495C276.018,11.495 286.699,22.176 286.699,35.305L286.699,225.781Z" style="fill:rgb(99,120,133);fill-rule:nonzero;"/>
                <path d="M239.08,30.543L210.509,30.543C192.128,30.543 177.176,45.5 177.176,63.876L177.176,197.21C177.176,215.586 192.128,230.543 210.509,230.543L239.08,230.543C257.461,230.543 272.413,215.586 272.413,197.21L272.413,63.876C272.413,45.5 257.461,30.543 239.08,30.543ZM262.889,197.209C262.889,210.338 252.209,221.019 239.08,221.019L210.509,221.019C197.38,221.019 186.699,210.338 186.699,197.209L186.699,135.304L262.889,135.304L262.889,197.209ZM262.89,125.781L186.699,125.781L186.699,63.876C186.699,50.747 197.38,40.066 210.509,40.066L239.08,40.066C252.209,40.066 262.89,50.747 262.89,63.876L262.89,125.781Z" style="fill:rgb(99,120,133);fill-rule:nonzero;"/>
                <path d="M234.318,54.352L215.27,54.352C207.927,54.352 200.984,61.295 200.984,68.638L210.508,68.638C210.508,66.505 213.132,63.876 215.27,63.876L234.318,63.876C236.456,63.876 239.08,66.505 239.08,68.638L239.08,78.162L200.985,78.162L200.985,111.495L248.604,111.495L248.604,68.638C248.604,61.295 241.661,54.352 234.318,54.352ZM239.08,101.971L210.509,101.971L210.509,87.686L239.08,87.686L239.08,101.971Z" style="fill:rgb(99,120,133);fill-rule:nonzero;"/>
                <path d="M248.603,163.876C248.604,156.533 241.661,149.59 234.318,149.59L215.27,149.59C207.927,149.59 200.984,156.533 200.984,163.876L200.984,206.733L248.603,206.733L248.603,163.876ZM239.08,197.21L210.509,197.21L210.509,182.924L239.08,182.924L239.08,197.21ZM239.081,173.4L210.509,173.4L210.509,163.876C210.509,161.743 213.133,159.114 215.271,159.114L234.319,159.114C236.457,159.114 239.081,161.743 239.081,163.876L239.081,173.4Z" style="fill:rgb(99,120,133);fill-rule:nonzero;"/>
                <rect x="177.175" y="21.019" width="9.524" height="9.524" style="fill:rgb(99,120,133);"/>
                <rect x="234.318" y="235.305" width="9.524" height="9.524" style="fill:rgb(99,120,133);"/>
                <rect x="253.366" y="235.305" width="9.524" height="9.524" style="fill:rgb(99,120,133);"/>
            </g>
        </g>
    </g>
</svg>
